<!-- Created with Inkscape (http://www.inkscape.org/) -->
<svg width="737.3" height="200" version="1.1" viewBox="0 0 737.3 200" xmlns="http://www.w3.org/2000/svg">
 <g transform="translate(-1064,-558)">
  <path d="m1135.8 663.8s-19.94 9.1801-32.052 6.5755c0 0-35.34 2.9604-39.567-44.264 0 0-6.3335-29.02 47.267-64.901 0 0 4.7252-3.5439 12.724-3.1881l97.365 0.6974c0 0.27042 0.2278 4.4121 0.2278 4.4121 0 0.28465 4.7394-4.3694 4.7394-4.3694l68.132 0.68316-0.071 34.756c0.2704 0 29.12-16.254 53.757 3.302l64.915-8.7388s1.3095 7.1875 4.341 7.216c0 0 24.395-12.724 42.456 2.3484l63.25-8.7388 1.5941 6.3478s38.528-19.2 55.593 13.521c0 0 34.856-38.272 82.279-8.8385l61.627-10.973 0.7828 5.2518s42.926-17.777 45.573 21.42c0 0 1.7934 14.09-8.5111 24.195 0 0-30.145 34.728-35.923 33.845l0.029 23.996s1.8787 5.8069 12.368 5.0953l-0.2277 23.441-22.317 24.608-72.814-0.72587s-0.4697-8.5538-0.1993-8.5538c0 0-38.698 35.468-78.066 0.0427l-10.304 9.8348-52.39-1.0817 0.043-4.1275-4.7395 4.6398-103.17 0.62624-0.797-3.8713c0.2846 0-4.7253 3.8144-4.7253 3.8144l-61.229-0.32735-0.1992-8.2834s-31.198 31.141-64.574 1.836l-5.8639 7.9418-58.468-0.85396-1.6083-5.5223s-3.6293 5.1949-3.6436 5.4796l-68.402-0.68317-0.014-26.217s9.6782-2.3768 10.119-18.104l0.6974-43.566" fill="#00adef"/>
  <path d="m1128.8 566.9c-33.817-0.34158-33.462 36.631-33.462 36.631 0.4554 37.531 38.778 39.008 38.778 39.008 22.061-0.0569 23.35-17.429 23.35-17.429 0.4412-16.553-14.469-16.137-14.469-16.137-15.998-0.17079-14.177 12.551-14.177 12.551-25.946 1.9499-22.412-20.911-22.412-20.911 1.6368-25.918 27.52-22.913 27.52-22.913 28.152-1.3663 29.834 22.913 29.834 22.913l-0.9382 95.987c-0.4128 14.617-10.633 14.26-10.904 14.26l-0.083 7.985 56.812 0.85479-0.1668-10.758c-8.8242-0.0854-10.383-9.4861-10.383-9.4861l1.0633-51.579 25.727 47.973c5.565 13.179-6.7549 13.447-6.7549 13.447l-0.3753 10.487 64.005 0.62546 0.3544-10.195c9.5359 12.226 33.545 12.196 33.545 12.196 42.2-0.12809 45.408-45.054 45.408-45.054l-8.2768-0.0834c-1.2952 19.015-24.726 17.388-24.726 17.388-28.138 0.54084-21.412-37.715-21.412-37.715h55.165c5.0099-60.631-44.366-58.918-44.366-58.918-54.411 6.362-48.619 60.461-48.619 60.461-2.4338 23.156 10.57 47.285 10.57 47.285-1.651 0.25619-6.88-1.1675-6.88-1.1675l-40.884-77.661 39.925-47.034c3.0743-4.6683 11.884-3.1898 11.884-3.1898 0-0.27042-0.4795-8.2769-0.4795-8.2769s-52.393-0.52122-52.664-0.52122l0.4378 10.758c14.774-1.2382 8.4437 9.4653 8.4437 9.4653l-33.504 42.969c-5.3088 6.5755-6.9217 1.8555-6.9217 1.8555s0.1525-44.394 0.1668-44.679c0.1-10.205 11.133-10.091 11.133-10.091s0.3747-10.487 0.1042-10.487c0 0-81.102-0.8131-81.372-0.8131zm499.2 33.441c-12.42-0.0279-45.557 4.6991-45.846 56.02 0 0-2.5673 64.55 47.076 65.319 0 0 34.922 9.439 47.034-43.407l-8.5479-0.0834s-4.8589 16.782-25.268 17.409c0 0-28.438 2.7486-23.058-38.028l57.083 0.56291s3.0519-57.336-43.845-57.521c0 0-1.7623-0.26459-4.6283-0.27103zm-223.68 0.60461s-43.64 6.609-43.782 6.609l-0.1877 5.3789c10.205-0.72586 8.4854 6.8383 8.4854 6.8383l-0.5837 85.792c-0.612 6.3335-10.549 5.1079-10.549 5.1079l-0.6255 8.0059 54.623 0.83395 0.083-8.2977c-6.6182-0.61201-7.6514-6.6716-7.6514-6.6716l0.5212-80.83c0.071-7.7141 11.362-5.6917 11.362-5.6917 10.76-0.1708 10.612 15.011 10.612 15.011l-1.0007 71.99c-0.6263 7.7141-6.6716 6.0044-6.6716 6.0044l-0.083 8.5479 103.43 1.2926-0.1876-8.819c-5.7927-0.0569-8.4854-7.8182-8.4854-7.8182l0.7922-79.704c0.9109-7.9987 10.258-5.6917 10.258-5.6917 11.884-2.0922 11.988 16.116 11.988 16.116l-1.2092 66.194c-0.6974 14.062-8.1101 11.237-8.1101 11.237l0.1876 8.2769 52.142 0.25018-0.4795-7.7348c-7.9987-0.64047-8.2352-5.6083-8.2352-5.6083-0.2704 0 0.5838-84.396 0.5838-84.666 0.2419-23.555-24.894-21.495-25.164-21.495-8.568-0.0854-22.975 7.7765-22.975 7.7765-8.0557 5.1522-8.5694 1.0001-8.8398 0.7297l-0.4587-8.0059-43.115 5.921 0.2294 6.338c7.7283-0.19926 8.2143 5.0454 8.2143 5.0454l-0.8548 85.771c-0.6262 7.9987-9.1525 5.9836-9.1525 5.9836-9.664 1.2952-8.4646-8.9024-8.4646-8.9024l0.2711-82.477c-2.5619-19.598-23.83-18.43-23.83-18.43-13.236-0.14233-25.095 9.1369-26.561 9.507-4.5686 2.021-6.6232-0.18308-6.609-1.5636zm342.19 0.93819c-11.871 0.2494-21.474 13.989-21.474 13.989-5.2803 4.3552-5.233-0.0625-5.233-0.0625l-0.1459-13.239-43.636 7.568-0.063 5.7959c7.7283-0.19926 8.7356 8.0892 8.7356 8.0892l1.4177 79.725c-0.085 7.9987-11.112 7.8808-11.112 7.8808 0-0.27042-0.3545 8.0059-0.3545 8.0059l59.293 0.60461-0.4795-8.0267c-13.521 0.14233-12.613-6.192-12.613-6.192l-0.1668-67.028s-0.4275 14.892-0.271-1.105c0.1566-15.997 17.2-9.4861 17.2-9.4861 5.1807 6.9455 12.363 5.6291 12.363 5.6291 14.83 2.1776 16.158-16.658 16.158-16.658-2.0353-16.567-17.221-15.345-17.221-15.345-0.8094-0.1112-1.6061-0.16257-2.3976-0.14594z" fill="#fff"/>
  <g fill="#00adef">
   <path d="m1308.5 646.85 20.125 0.75433 0.8113-27.028s-1.5514-9.664-10.39-8.383c0 0-9.6355-1.466-10.276 7.3583l-0.2705 27.298"/>
   <path d="m1621.4 646.01 20.125 0.75433 0.8255-27.028s-1.5656-9.6782-10.404-8.383c0 0-9.6355-1.4802-10.276 7.344l-0.2705 27.312"/>
   <path d="m1757.9 685.55c0-11.016 8.141-19.029 18.36-19.029 10.105 0 18.388 8.013 18.388 19.029 0 11.101-8.2833 19.157-18.388 19.157-10.219 0-18.36-8.0557-18.36-19.157zm-6.6467 0c0 14.802 11.785 24.352 25.007 24.352s25.035-9.5501 25.035-24.352c0-14.731-11.813-24.238-25.035-24.238s-25.007 9.5074-25.007 24.238zm15.3 13.564h5.4084v-11.614h3.3874l6.6466 11.614h5.6646l-7.2871-11.87c4.0278-0.32735 7.159-2.2772 7.159-7.2729 0-5.8923-3.8428-8.0414-10.689-8.0414h-10.29zm5.4084-22.957h4.5545c2.4764 0 5.6076 0.45544 5.6076 3.3589 0 3.302-2.2772 3.7574-5.3372 3.7574h-4.8249v-7.1163"/>
  </g>
 </g>
</svg>
